<svg width="1440" height="846" viewBox="0 0 1440 846" fill="none" xmlns="http://www.w3.org/2000/svg">
<path d="M0 0H1440V846H0V0Z" fill="white"/>
<path d="M1440 166.38L1405.6 161.727C1371.2 156.933 1302.4 147.627 1233.92 155.523C1165.28 163.56 1097.12 188.94 1028.48 185.838C960 182.877 891.2 151.293 822.72 155.1C754.08 158.907 685.92 197.823 617.28 217.14C548.8 236.457 480 235.893 411.52 226.587C342.88 217.14 274.72 198.81 206.08 174.558C137.6 150.447 68.7999 120.273 34.4 105.327L0 90.24V0H34.4C68.7999 0 137.6 0 206.08 0C274.72 0 342.88 0 411.52 0C480 0 548.8 0 617.28 0C685.92 0 754.08 0 822.72 0C891.2 0 960 0 1028.48 0C1097.12 0 1165.28 0 1233.92 0C1302.4 0 1371.2 0 1405.6 0H1440V166.38Z" fill="#8E9DBC"/>
</svg>
