<svg width="1440" height="848" viewBox="0 0 1440 848" fill="none" xmlns="http://www.w3.org/2000/svg">
<g clip-path="url(#clip0)">
<path d="M1440 0H0V848H1440V0Z" fill="white"/>
<path d="M0 678.4L34.4 683.064C68.8 687.869 137.6 697.197 206.08 689.283C274.72 681.227 342.88 655.787 411.52 658.896C480 661.864 548.8 693.523 617.28 689.707C685.92 685.891 754.08 646.883 822.72 627.52C891.2 608.157 960 608.723 1028.48 618.051C1097.12 627.52 1165.28 645.893 1233.92 670.203C1302.4 694.371 1371.2 724.616 1405.6 739.597L1440 754.72V849.413H1405.6C1371.2 849.413 1302.4 849.413 1233.92 849.413C1165.28 849.413 1097.12 849.413 1028.48 849.413C960 849.413 891.2 849.413 822.72 849.413C754.08 849.413 685.92 849.413 617.28 849.413C548.8 849.413 480 849.413 411.52 849.413C342.88 849.413 274.72 849.413 206.08 849.413C137.6 849.413 68.8 849.413 34.4 849.413H0V678.4Z" fill="#8E9DBC"/>
</g>
<defs>
<clipPath id="clip0">
<rect width="1440" height="848" fill="white"/>
</clipPath>
</defs>
</svg>
