<svg width="1440" height="1076" viewBox="0 0 1440 1076" fill="none" xmlns="http://www.w3.org/2000/svg">
<path d="M0 0H1440V1076H0V0Z" fill="#FFFAF7"/>
<path d="M0 645.6C109.61 631.054 219.406 616.508 302.5 559.122C385.594 501.735 442.36 401.308 488.295 300.882C534.417 200.455 569.708 100.227 605 0H0V645.6Z" fill="#FCBFA4"/>
<path d="M0 322.8C54.8981 315.627 109.61 308.254 151.25 279.561C192.89 250.867 221.273 200.654 244.241 150.441C267.208 100.227 284.761 50.2133 302.5 0H0V322.8Z" fill="#F37F61"/>
<path d="M1440 430.4C1374.45 491.174 1309.05 551.749 1232.25 597.977C1155.45 644.205 1067.4 675.887 1019.1 753.2C970.8 830.513 962.4 953.256 954 1076H1440V430.4Z" fill="#FCBFA4"/>
<path d="M1440 753.2C1407.3 783.487 1374.45 813.974 1336.2 837.088C1297.8 860.202 1253.7 875.944 1229.55 914.6C1205.4 953.256 1201.2 1014.63 1197 1076H1440V753.2Z" fill="#F37F61"/>
</svg>
