<svg width="45" height="44" viewBox="0 0 45 44" fill="none" xmlns="http://www.w3.org/2000/svg">
<path d="M24 0.00012207C23.446 0.00012207 23 0.446122 23 1.00012V2.00012C23 2.55412 23.446 3.00012 24 3.00012H34.0039L34.0195 9.4845C34.0215 10.3098 34.6903 10.9783 35.5156 10.9806L42 10.9977V39.4996C42 40.3565 41.3569 40.9996 40.5 40.9996H17.5C16.6431 40.9996 16 40.3565 16 39.4996V37.9996C16 37.4456 15.554 36.9996 15 36.9996H14C13.446 36.9996 13 37.4456 13 37.9996V39.4996C13 41.9667 15.0329 43.9996 17.5 43.9996H40.5C42.9671 43.9996 45 41.9667 45 39.4996V9.01331C44.9999 8.61551 44.8418 8.23406 44.5605 7.95276L37.0468 0.439087C36.7656 0.157687 36.3841 -0.000266211 35.9863 -0.000366211L24 0.00012207ZM13 21.0001C13 21.5541 13.446 22.0001 14 22.0001H15C15.554 22.0001 16 21.5541 16 21.0001V11.0001C16 10.4461 15.554 10.0001 15 10.0001H14C13.446 10.0001 13 10.4461 13 11.0001V21.0001Z" fill="#242730"/>
<path d="M17.5 0C15.0329 0 13 2.0329 13 4.5V7C13 7.554 13.446 8 14 8H15C15.554 8 16 7.554 16 7V4.5C16 3.6431 16.6431 3 17.5 3H20C20.554 3 21 2.554 21 2V1C21 0.446 20.554 0 20 0H17.5ZM2 24C0.89199 24 0 24.892 0 26V33C0 34.108 0.89199 35 2 35H27C28.108 35 29 34.108 29 33V26C29 24.892 28.108 24 27 24H2ZM8.55078 25.9082C8.98047 25.9082 9.3724 25.9942 9.77344 26.166C9.87848 25.9372 9.99218 25.9082 10.25 25.9082C10.5556 25.9082 10.6326 26.0051 10.6426 26.4062L10.6602 27.3027V27.3515C10.6602 27.7048 10.5464 27.8476 10.1836 27.8476C9.80164 27.8476 9.76303 27.6374 9.64844 27.4082C9.45747 27.0358 9.12262 26.8261 8.67383 26.8261C8.09136 26.8261 7.73828 27.1317 7.73828 27.5136C7.73828 28.0006 8.27386 28.0475 9.23828 28.248C10.3937 28.4867 10.9375 29.0038 10.9375 29.9492C10.9375 31.095 10.135 31.7343 8.68359 31.7343C8.20615 31.7343 7.76823 31.6853 7.28125 31.5039C7.17621 31.6854 7.05187 31.7343 6.8418 31.7343C6.45985 31.7343 6.31664 31.62 6.30664 31.2285L6.27734 30.1289V30.082C6.27734 29.681 6.41124 29.5273 6.80273 29.5273C7.16558 29.5273 7.2129 29.7946 7.38477 30.1288C7.63304 30.6158 8.05337 30.8456 8.68359 30.8456C9.24696 30.8456 9.5918 30.6071 9.5918 30.1679C9.5918 29.5663 9.05622 29.5659 8.00586 29.289C6.9555 29.0121 6.40234 28.6581 6.40234 27.7128C6.40234 26.6528 7.2808 25.9081 8.55078 25.9081V25.9082ZM14.3613 25.9082C15.8987 25.9082 16.9883 27.1006 16.9883 28.7812C16.9883 30.4713 15.8804 31.6758 14.4004 31.6758C14.3526 31.6758 14.2463 31.6762 14.084 31.6658L13.7305 32.0271C13.9883 31.9411 14.2461 31.8943 14.5039 31.8943C15.1437 31.8943 15.508 32.113 15.7754 32.113C16.0619 32.113 16.2993 31.9138 16.4902 31.9138C16.7194 31.9138 16.8926 32.1132 16.8926 32.3806C16.8926 32.7243 16.4329 33.0212 15.8027 33.0212C15.2012 33.0212 14.7628 32.7244 14.2949 32.7244C13.7125 32.7244 13.3121 33.0876 13.0352 33.0876C12.7678 33.0876 12.5566 32.8867 12.5566 32.6384C12.5566 32.4474 12.6992 32.2476 12.957 31.9802L13.4238 31.5037C12.403 31.1308 11.7266 30.0789 11.7266 28.781C11.7266 27.1003 12.8049 25.908 14.3613 25.908V25.9082ZM18.0059 26.0605H20C20.3819 26.0605 20.5742 26.2038 20.5742 26.5762C20.5742 26.9581 20.3819 27.0918 20 27.0918H19.5898V30.5664H21.709V29.7363C21.709 29.3352 21.8444 29.1445 22.2168 29.1445C22.5987 29.1445 22.7227 29.3448 22.7227 29.7363V31.168C22.7227 31.5019 22.6259 31.5879 22.2344 31.5879H18.0059C17.6239 31.5879 17.4414 31.4543 17.4414 31.0723C17.4414 30.6904 17.6239 30.5664 18.0059 30.5664H18.416V27.0918H18.0059C17.6239 27.0918 17.4414 26.9581 17.4414 26.5762C17.4414 26.2038 17.6239 26.0605 18.0059 26.0605ZM14.3613 26.9863C13.5783 26.9863 13.0723 27.6363 13.0723 28.8203C13.0723 30.0044 13.5974 30.6621 14.3613 30.6621C15.1348 30.6621 15.6504 30.0139 15.6504 28.8203C15.6504 27.6267 15.1348 26.9863 14.3613 26.9863Z" fill="#DB6648"/>
</svg>
